<svg data-v-423bf9ae="" xmlns="http://www.w3.org/2000/svg" viewBox="0 0 42.5 60" class="icon"><!----><!----><!----><defs data-v-423bf9ae=""><linearGradient data-v-423bf9ae="" gradientTransform="rotate(25)" id="0d27a9a6-951c-4761-bad5-8235e3d58229" x1="0%" y1="0%" x2="100%" y2="0%"><stop data-v-423bf9ae="" offset="0%" style="stop-color: rgb(40, 134, 66); stop-opacity: 1;"></stop><stop data-v-423bf9ae="" offset="100%" style="stop-color: rgb(39, 253, 253); stop-opacity: 1;"></stop></linearGradient></defs><g data-v-423bf9ae="" id="6a8d7ce5-0aaa-4ae9-8ea2-46a1ae303f56" transform="matrix(1.25,0,0,1.25,-11.25,-2.5)" stroke="none" fill="url(#0d27a9a6-951c-4761-bad5-8235e3d58229)"><style></style><path d="M43 50H9V2h7.6l20.5 7.8 5.8 2.5V50zm-32-2h30V13.6l-4.6-1.9L16.3 4H11v44z"></path><path d="M36.4 22.6L15.8 3.7l1.3-1.4L36 19.6l4.6-6.9 1.7 1.2zM14 22.1h18v2H14zM14 28.1h24v2H14zM14 34.1h24v2H14zM14 40.1h24v2H14zM22.8 19.8H14V11h8.8v8.8zm-6.8-2h4.8V13H16v4.8z"></path></g><!----></svg>